<?xml version="1.0" encoding="UTF-8"?>
<svg xmlns="http://www.w3.org/2000/svg" viewBox="0 0 788.33 215.16">
  <defs>
    <style>
      .cls-1 {
        fill: #58595b;
      }

      .cls-1, .cls-2, .cls-3, .cls-4 {
        stroke-width: 0px;
      }

      .cls-2 {
        fill: #000;
      }

      .cls-3 {
        fill: #eaaa00;
      }

      .cls-4 {
        fill: maroon;
      }
    </style>
  </defs>
  <g id="rule">
    <rect class="cls-2" x="161.26" y="79.37" width="579.09" height="1.67"/>
  </g>
  <g id="secondary">
    <g>
      <path class="cls-1" d="M161.25,92.64h7.31l8.1,13.03,8.1-13.03h7.3v30.8h-6.73v-20.11l-8.67,13.16h-.18l-8.58-13.03v19.98h-6.65v-30.8Z"/>
      <path class="cls-1" d="M210.13,92.42h6.25l13.2,31.02h-7.08l-2.82-6.91h-13.03l-2.82,6.91h-6.91l13.2-31.02ZM217.26,110.55l-4.09-9.99-4.09,9.99h8.18Z"/>
      <path class="cls-1" d="M234.46,92.64h6.25l14.43,18.97v-18.97h6.69v30.8h-5.76l-14.92-19.58v19.58h-6.69v-30.8Z"/>
      <path class="cls-1" d="M267.65,118.95l4-4.8c2.77,2.29,5.68,3.74,9.2,3.74,2.77,0,4.44-1.1,4.44-2.9v-.09c0-1.72-1.06-2.6-6.2-3.92-6.21-1.58-10.21-3.3-10.21-9.42v-.09c0-5.59,4.49-9.29,10.78-9.29,4.49,0,8.32,1.41,11.44,3.92l-3.52,5.1c-2.73-1.89-5.41-3.04-8.01-3.04s-3.96,1.19-3.96,2.68v.09c0,2.02,1.32,2.68,6.64,4.05,6.25,1.63,9.77,3.87,9.77,9.24v.09c0,6.12-4.67,9.55-11.31,9.55-4.67,0-9.37-1.63-13.07-4.93Z"/>
      <path class="cls-1" d="M297.81,110.24v-17.6h6.78v17.43c0,5.02,2.51,7.61,6.65,7.61s6.64-2.51,6.64-7.39v-17.65h6.78v17.38c0,9.33-5.24,13.91-13.51,13.91s-13.33-4.62-13.33-13.69Z"/>
      <path class="cls-1" d="M332.36,92.64h23.24v6.03h-16.5v6.25h14.52v6.03h-14.52v6.47h16.72v6.03h-23.46v-30.8Z"/>
      <path class="cls-1" d="M369.49,98.89h-9.37v-6.25h25.52v6.25h-9.37v24.56h-6.78v-24.56Z"/>
      <path class="cls-1" d="M388.73,108.13v-.09c0-8.76,6.91-15.93,16.42-15.93s16.33,7.08,16.33,15.84v.09c0,8.76-6.91,15.93-16.42,15.93s-16.33-7.08-16.33-15.84ZM414.39,108.13v-.09c0-5.28-3.87-9.68-9.33-9.68s-9.24,4.31-9.24,9.59v.09c0,5.28,3.87,9.68,9.33,9.68s9.24-4.31,9.24-9.59Z"/>
      <path class="cls-1" d="M442.32,92.64h6.78v30.8h-6.78v-30.8Z"/>
      <path class="cls-1" d="M457.21,92.64h6.25l14.43,18.97v-18.97h6.69v30.8h-5.76l-14.92-19.58v19.58h-6.69v-30.8Z"/>
      <path class="cls-1" d="M490.41,118.95l4-4.8c2.77,2.29,5.68,3.74,9.2,3.74,2.77,0,4.44-1.1,4.44-2.9v-.09c0-1.72-1.06-2.6-6.21-3.92-6.2-1.58-10.21-3.3-10.21-9.42v-.09c0-5.59,4.49-9.29,10.78-9.29,4.49,0,8.32,1.41,11.44,3.92l-3.52,5.1c-2.73-1.89-5.41-3.04-8.01-3.04s-3.96,1.19-3.96,2.68v.09c0,2.02,1.32,2.68,6.64,4.05,6.25,1.63,9.77,3.87,9.77,9.24v.09c0,6.12-4.67,9.55-11.31,9.55-4.67,0-9.37-1.63-13.07-4.93Z"/>
      <path class="cls-1" d="M527.15,98.89h-9.37v-6.25h25.52v6.25h-9.37v24.56h-6.78v-24.56Z"/>
      <path class="cls-1" d="M548.51,92.64h6.78v30.8h-6.78v-30.8Z"/>
      <path class="cls-1" d="M569.79,98.89h-9.37v-6.25h25.52v6.25h-9.37v24.56h-6.78v-24.56Z"/>
      <path class="cls-1" d="M590.78,110.24v-17.6h6.78v17.43c0,5.02,2.51,7.61,6.65,7.61s6.64-2.51,6.64-7.39v-17.65h6.78v17.38c0,9.33-5.24,13.91-13.51,13.91s-13.33-4.62-13.33-13.69Z"/>
      <path class="cls-1" d="M631.82,98.89h-9.37v-6.25h25.52v6.25h-9.37v24.56h-6.78v-24.56Z"/>
      <path class="cls-1" d="M653.03,92.64h23.24v6.03h-16.5v6.25h14.52v6.03h-14.52v6.47h16.72v6.03h-23.46v-30.8Z"/>
      <path class="cls-1" d="M161.25,136.64h23.46v6.16h-16.68v6.56h14.7v6.16h-14.7v11.93h-6.78v-30.8Z"/>
      <path class="cls-1" d="M188.19,152.13v-.09c0-8.76,6.91-15.93,16.42-15.93s16.33,7.08,16.33,15.84v.09c0,8.76-6.91,15.93-16.42,15.93s-16.33-7.08-16.33-15.84ZM213.84,152.13v-.09c0-5.28-3.87-9.68-9.33-9.68s-9.24,4.31-9.24,9.59v.09c0,5.28,3.87,9.68,9.33,9.68s9.24-4.31,9.24-9.59Z"/>
      <path class="cls-1" d="M226.47,136.64h14.08c3.92,0,6.95,1.1,8.98,3.12,1.72,1.72,2.64,4.14,2.64,7.04v.09c0,4.97-2.68,8.1-6.6,9.55l7.53,11h-7.92l-6.6-9.86h-5.32v9.86h-6.78v-30.8ZM240.11,151.6c3.3,0,5.19-1.76,5.19-4.36v-.09c0-2.9-2.02-4.4-5.33-4.4h-6.73v8.85h6.87Z"/>
      <path class="cls-1" d="M272.31,154.24v-17.6h6.78v17.43c0,5.02,2.51,7.61,6.65,7.61s6.64-2.51,6.64-7.39v-17.65h6.78v17.38c0,9.33-5.24,13.91-13.51,13.91s-13.33-4.62-13.33-13.69Z"/>
      <path class="cls-1" d="M305.97,136.64h14.08c3.92,0,6.95,1.1,8.98,3.12,1.72,1.72,2.64,4.14,2.64,7.04v.09c0,4.97-2.68,8.1-6.6,9.55l7.53,11h-7.92l-6.6-9.86h-5.32v9.86h-6.78v-30.8ZM319.62,151.6c3.3,0,5.19-1.76,5.19-4.36v-.09c0-2.9-2.02-4.4-5.33-4.4h-6.73v8.85h6.87Z"/>
      <path class="cls-1" d="M338.38,136.64h14.3c3.52,0,6.29.97,8.05,2.73,1.41,1.41,2.11,3.12,2.11,5.24v.09c0,3.48-1.85,5.41-4.05,6.64,3.56,1.36,5.76,3.43,5.76,7.57v.09c0,5.63-4.58,8.45-11.53,8.45h-14.65v-30.8ZM356.11,145.75c0-2.02-1.58-3.17-4.44-3.17h-6.69v6.51h6.25c2.99,0,4.88-.97,4.88-3.26v-.09ZM352.81,154.72h-7.83v6.78h8.05c2.99,0,4.8-1.06,4.8-3.34v-.09c0-2.07-1.54-3.34-5.02-3.34Z"/>
      <path class="cls-1" d="M380.48,136.42h6.25l13.2,31.02h-7.08l-2.82-6.91h-13.03l-2.82,6.91h-6.91l13.2-31.02ZM387.61,154.55l-4.09-9.99-4.09,9.99h8.18Z"/>
      <path class="cls-1" d="M404.81,136.64h6.25l14.43,18.97v-18.97h6.69v30.8h-5.76l-14.92-19.58v19.58h-6.69v-30.8Z"/>
      <path class="cls-1" d="M454.4,136.64h6.78v30.8h-6.78v-30.8Z"/>
      <path class="cls-1" d="M469.29,136.64h6.25l14.43,18.97v-18.97h6.69v30.8h-5.76l-14.92-19.58v19.58h-6.69v-30.8Z"/>
      <path class="cls-1" d="M504.71,136.64h6.25l14.43,18.97v-18.97h6.69v30.8h-5.76l-14.92-19.58v19.58h-6.69v-30.8Z"/>
      <path class="cls-1" d="M537.66,152.13v-.09c0-8.76,6.91-15.93,16.42-15.93s16.33,7.08,16.33,15.84v.09c0,8.76-6.91,15.93-16.42,15.93s-16.33-7.08-16.33-15.84ZM563.32,152.13v-.09c0-5.28-3.87-9.68-9.33-9.68s-9.24,4.31-9.24,9.59v.09c0,5.28,3.87,9.68,9.33,9.68s9.24-4.31,9.24-9.59Z"/>
      <path class="cls-1" d="M570.53,136.64h7.48l8.05,21.7,8.05-21.7h7.3l-12.45,31.02h-5.99l-12.45-31.02Z"/>
      <path class="cls-1" d="M611.93,136.42h6.25l13.2,31.02h-7.08l-2.82-6.91h-13.03l-2.82,6.91h-6.91l13.2-31.02ZM619.06,154.55l-4.09-9.99-4.09,9.99h8.18Z"/>
      <path class="cls-1" d="M639.63,142.89h-9.37v-6.25h25.52v6.25h-9.37v24.56h-6.78v-24.56Z"/>
      <path class="cls-1" d="M660.99,136.64h6.78v30.8h-6.78v-30.8Z"/>
      <path class="cls-1" d="M674.3,152.13v-.09c0-8.76,6.91-15.93,16.42-15.93s16.33,7.08,16.33,15.84v.09c0,8.76-6.91,15.93-16.42,15.93s-16.33-7.08-16.33-15.84ZM699.95,152.13v-.09c0-5.28-3.87-9.68-9.33-9.68s-9.24,4.31-9.24,9.59v.09c0,5.28,3.87,9.68,9.33,9.68s9.24-4.31,9.24-9.59Z"/>
      <path class="cls-1" d="M712.67,136.64h6.25l14.43,18.97v-18.97h6.69v30.8h-5.76l-14.92-19.58v19.58h-6.69v-30.8Z"/>
    </g>
    <path class="cls-4" d="M122.1,79.32l-23.23,37.37-23.22-37.37h-20.96v20.4h20.44v38.44h7.43v29.52h4.96v-44.85h22.64v13.83l12.03-8.38v-33.69h16.56v73.09h4.3v-88.36h-20.95ZM123.17,95.57v32.03l5.57-3.87v43.95h9.03v-72.11h-14.6ZM123.17,128.79v38.89h4.59v-42.08l-4.59,3.19ZM110.16,137.85v29.83h12.03v-38.21l-12.03,8.38ZM75.13,139.14v28.54h6.45v-28.54h-6.45ZM61.34,139.14v28.54h12.81v-28.54h-12.81ZM54.69,100.7v66.98h5.68v-29.52h13.78v-37.46h-19.46Z"/>
    <path class="cls-3" d="M98.84,87.98c-3.92,0-7.1,3.19-7.1,7.1s3.19,7.1,7.1,7.1,7.1-3.19,7.1-7.1-3.19-7.1-7.1-7.1Z"/>
    <polygon class="cls-3" points="110.16 122.83 110.16 136.66 107.22 138.7 102.57 141.94 102.57 167.68 87.52 167.68 87.52 122.83 110.16 122.83"/>
    <polygon class="cls-3" points="110.16 137.85 110.16 167.68 103.55 167.68 103.55 142.45 107.22 139.89 110.16 137.85"/>
  </g>
  <g id="primary">
    <g>
      <path class="cls-4" d="M166.62,53.27h-5.54v-3.69h15.08v3.69h-5.54v14.51h-4v-14.51Z"/>
      <path class="cls-4" d="M180.14,49.58h4v7.2h7.38v-7.2h4v18.2h-4v-7.31h-7.38v7.31h-4v-18.2Z"/>
      <path class="cls-4" d="M200.81,49.58h13.73v3.56h-9.75v3.69h8.58v3.56h-8.58v3.82h9.88v3.56h-13.86v-18.2Z"/>
      <path class="cls-4" d="M227.57,59.98v-10.4h4v10.3c0,2.96,1.48,4.5,3.93,4.5s3.93-1.48,3.93-4.37v-10.43h4v10.27c0,5.51-3.09,8.22-7.98,8.22s-7.88-2.73-7.88-8.09Z"/>
      <path class="cls-4" d="M248.42,49.58h3.69l8.53,11.21v-11.21h3.95v18.2h-3.41l-8.81-11.57v11.57h-3.95v-18.2Z"/>
      <path class="cls-4" d="M270.05,49.58h4v18.2h-4v-18.2Z"/>
      <path class="cls-4" d="M277.95,49.58h4.42l4.76,12.82,4.76-12.82h4.32l-7.36,18.33h-3.54l-7.36-18.33Z"/>
      <path class="cls-4" d="M299.92,49.58h13.73v3.56h-9.75v3.69h8.58v3.56h-8.58v3.82h9.88v3.56h-13.86v-18.2Z"/>
      <path class="cls-4" d="M318.26,49.58h8.32c2.31,0,4.11.65,5.3,1.85,1.01,1.01,1.56,2.44,1.56,4.16v.05c0,2.94-1.59,4.78-3.9,5.64l4.45,6.5h-4.68l-3.9-5.82h-3.15v5.82h-4v-18.2ZM326.31,58.42c1.95,0,3.07-1.04,3.07-2.57v-.05c0-1.72-1.2-2.6-3.15-2.6h-3.98v5.23h4.06Z"/>
      <path class="cls-4" d="M336.71,65.13l2.37-2.83c1.64,1.35,3.35,2.21,5.43,2.21,1.64,0,2.63-.65,2.63-1.72v-.05c0-1.01-.62-1.53-3.67-2.31-3.67-.94-6.03-1.95-6.03-5.56v-.05c0-3.3,2.65-5.49,6.37-5.49,2.65,0,4.91.83,6.76,2.31l-2.08,3.02c-1.61-1.12-3.2-1.79-4.73-1.79s-2.34.7-2.34,1.59v.05c0,1.2.78,1.59,3.93,2.39,3.69.96,5.77,2.29,5.77,5.46v.05c0,3.61-2.76,5.64-6.68,5.64-2.76,0-5.54-.96-7.72-2.91Z"/>
      <path class="cls-4" d="M355.69,49.58h4v18.2h-4v-18.2Z"/>
      <path class="cls-4" d="M369.4,53.27h-5.54v-3.69h15.08v3.69h-5.54v14.51h-4v-14.51Z"/>
      <path class="cls-4" d="M388.04,60.6l-6.99-11.03h4.68l4.34,7.31,4.42-7.31h4.55l-6.99,10.95v7.25h-4v-7.18Z"/>
      <path class="cls-4" d="M410.34,58.73v-.05c0-5.17,4.08-9.41,9.7-9.41s9.65,4.19,9.65,9.36v.05c0,5.17-4.08,9.41-9.7,9.41s-9.65-4.19-9.65-9.36ZM425.5,58.73v-.05c0-3.12-2.29-5.72-5.51-5.72s-5.46,2.55-5.46,5.67v.05c0,3.12,2.29,5.72,5.51,5.72s5.46-2.55,5.46-5.67Z"/>
      <path class="cls-4" d="M434.16,49.58h13.86v3.64h-9.85v3.87h8.68v3.64h-8.68v7.05h-4v-18.2Z"/>
      <path class="cls-4" d="M460.03,58.73v-.05c0-5.17,3.9-9.41,9.49-9.41,3.43,0,5.49,1.14,7.18,2.81l-2.55,2.94c-1.4-1.27-2.83-2.05-4.65-2.05-3.07,0-5.28,2.55-5.28,5.67v.05c0,3.12,2.16,5.72,5.28,5.72,2.08,0,3.35-.83,4.78-2.13l2.55,2.57c-1.87,2-3.95,3.25-7.46,3.25-5.36,0-9.33-4.13-9.33-9.36Z"/>
      <path class="cls-4" d="M480.93,49.58h4v7.2h7.38v-7.2h4v18.2h-4v-7.31h-7.38v7.31h-4v-18.2Z"/>
      <path class="cls-4" d="M501.79,49.58h4v18.2h-4v-18.2Z"/>
      <path class="cls-4" d="M510.44,58.73v-.05c0-5.17,3.9-9.41,9.49-9.41,3.43,0,5.49,1.14,7.18,2.81l-2.55,2.94c-1.4-1.27-2.83-2.05-4.65-2.05-3.07,0-5.28,2.55-5.28,5.67v.05c0,3.12,2.16,5.72,5.28,5.72,2.08,0,3.35-.83,4.78-2.13l2.55,2.57c-1.87,2-3.95,3.25-7.46,3.25-5.36,0-9.33-4.13-9.33-9.36Z"/>
      <path class="cls-4" d="M537.59,49.45h3.69l7.8,18.33h-4.19l-1.66-4.08h-7.7l-1.66,4.08h-4.08l7.8-18.33ZM541.8,60.16l-2.42-5.9-2.42,5.9h4.84Z"/>
      <path class="cls-4" d="M550.82,58.73v-.05c0-5.17,4.03-9.41,9.54-9.41,3.28,0,5.25.88,7.15,2.5l-2.52,3.04c-1.4-1.17-2.65-1.85-4.76-1.85-2.91,0-5.23,2.57-5.23,5.67v.05c0,3.33,2.29,5.77,5.51,5.77,1.46,0,2.76-.36,3.77-1.09v-2.6h-4.03v-3.46h7.9v7.9c-1.87,1.59-4.45,2.89-7.77,2.89-5.67,0-9.57-3.98-9.57-9.36Z"/>
      <path class="cls-4" d="M572.12,58.73v-.05c0-5.17,4.08-9.41,9.7-9.41s9.65,4.19,9.65,9.36v.05c0,5.17-4.08,9.41-9.7,9.41s-9.65-4.19-9.65-9.36ZM587.27,58.73v-.05c0-3.12-2.29-5.72-5.51-5.72s-5.46,2.55-5.46,5.67v.05c0,3.12,2.29,5.72,5.51,5.72s5.46-2.55,5.46-5.67Z"/>
    </g>
  </g>
</svg>